<?xml version="1.0" encoding="utf-8"?>
<!-- Generator: Adobe Illustrator 25.4.1, SVG Export Plug-In . SVG Version: 6.00 Build 0)  -->
<svg version="1.1" id="レイヤー_1のコピー" xmlns="http://www.w3.org/2000/svg" xmlns:xlink="http://www.w3.org/1999/xlink"
	 x="0px" y="0px" viewBox="0 0 860.2 266" style="enable-background:new 0 0 860.2 266;" xml:space="preserve">
<style type="text/css">
	.st0{fill:#FFFFFF;}
</style>
<path class="st0" d="M84.8,21.6c-12.5,30.4-26.8,69-32.7,85l-0.9,0.3c-7.2-19.3-18.9-49.8-32-81.6C13.1,10.5,12.5,6.9,0,5.9V5.2
	c6.6,0.3,12.4,0.4,20.2,0.4c9.2,0,12.2,0,21.5-0.4v0.7C29.5,6.7,25.2,8.5,29.4,20.1C37.4,43,50.1,74.7,56.4,89.4
	c5.6-14.1,15.4-39.1,24.2-64.6c4.6-13.1,1.9-18-12-18.9V5.2C74.4,5.5,79,5.6,85,5.6c5.6,0,8.6-0.1,15.6-0.4v0.7
	C93.6,6.8,89.7,10.1,84.8,21.6z"/>
<path class="st0" d="M126.4,104.7c8.2-0.7,10.8-2.2,10.8-15.3V63.2c0-10.5-1.2-13.2-2.6-15.5l-8.1-1.4l-0.1-0.6
	c6.2-1.7,15.3-4.9,20.4-6.9l0.4,0.4c-0.5,4.7-0.7,9.5-0.6,14.3v35.9c0,13.2,2.2,14.4,10.8,15.4v0.7c-6.6-0.3-9.4-0.4-15.8-0.4
	c-6.8,0-8.6,0.1-15.3,0.4L126.4,104.7z M133.2,18.9c0-3.9,3.2-7.1,7.1-7.1s7.1,3.2,7.1,7.1c0,0,0,0,0,0c0,3.9-3.2,7.1-7.1,7.1
	C136.3,25.9,133.2,22.8,133.2,18.9z"/>
<path class="st0" d="M203.8,89.3c0,13.2,2.2,14.4,10.8,15.4v0.7c-6.6-0.3-9.2-0.4-15.7-0.4c-6.8,0-8.8,0.1-15.4,0.4v-0.7
	c8.2-0.7,10.8-2.2,10.8-15.3V24.5c0-10.5-1.1-13.2-2.6-15.5l-8.1-1.4l-0.1-0.6c8.1-2.4,14.4-4.5,20.6-6.9l0.4,0.4
	c-0.6,5-0.7,14.7-0.7,23L203.8,89.3z"/>
<path class="st0" d="M269,89.3c0,13.2,2.2,14.4,10.8,15.4v0.7c-6.6-0.3-9.2-0.4-15.7-0.4c-6.8,0-8.8,0.1-15.4,0.4v-0.7
	c8.2-0.7,10.8-2.2,10.8-15.3V24.5c0-10.5-1.1-13.2-2.6-15.5l-8.1-1.4l-0.1-0.6c8.1-2.4,14.4-4.5,20.6-6.9l0.4,0.4
	c-0.6,5-0.7,14.7-0.7,23V89.3z"/>
<path class="st0" d="M351.2,106.6c-2.9-0.6-4.9-1.4-6.5-3.7c-1.2-1.7-1.9-5.6-1.9-8.5c-5.3,10.4-12.8,12.4-18.4,12.2
	c-7.6-0.1-13.1-5-13.4-13.1c-0.6-6.5,2.2-12.8,7.5-16.6c8.1-2.9,16.9-5.3,24.3-7.3v-6.3c0-9.1-1.7-15.3-5.8-18
	c-2.6-1.7-5.8-2.6-8.9-2.5c-1.3,0-2.6,0.1-3.9,0.4l-0.7,0.7c-0.2,3.5-0.2,7,0.1,10.5l-1.6,1.3c-0.6,0.2-1.1,0.3-1.7,0.3
	c-3.5,0-5.9-1.6-5.9-5.2s5.8-7,10.2-9.1c3.7-1.7,7.6-2.8,11.7-3.2c9.5,0,15.8,5.8,15.8,22.6c0,8.1-0.3,17.6-0.3,23.8
	c0,11.2,1.4,14.8,7.2,14.8h5.8l0.1,0.6L351.2,106.6z M342.9,70.6c-6.1,2.1-12,4.6-17.9,7.3c-3,2.4-5,7-4.5,13.5
	c0.4,5.5,3.9,9.5,10.8,9.2c5-0.2,11.2-4.3,11.4-9.9C342.8,86.3,342.8,80.2,342.9,70.6L342.9,70.6z"/>
<path class="st0" d="M441.6,104.7c10.2-1.3,13.5-6.2,17.7-15.8C466,73.7,494.8,4,494.8,4l0.9-0.3C505.3,30.8,518,67,524.8,85
	c5,13.5,7.3,18.4,17.7,19.7v0.7c-6.2-0.3-9.9-0.4-18-0.4c-9.5,0-15.6,0.1-21.6,0.4v-0.7c11.5-0.9,15.4-3.6,11.8-14.7
	c-2.7-8.3-5.9-18.1-8.4-24.9h-35.2c0,0-4.8,12.7-7.4,20.3c-5,14.7-0.6,18.9,12.2,19.3v0.7c-4.5-0.1-10.4-0.4-17.9-0.4
	c-5.9,0-12.4,0.1-16.6,0.4L441.6,104.7z M505.7,63.5c-4.5-12.6-10.9-31.6-15.6-44.4l-18.3,44.4H505.7z"/>
<path class="st0" d="M567.9,104.1c8.3-12,13.8-20,22.2-32.2c7.1-10.5,14.5-21.2,19.7-30c-28.2,0-34.4,4.6-38.3,18h-0.9l1.3-10.4
	c0.7-6.2,2.6-8.2,3.7-9.4c9.4,0.3,14.1,0.4,22.9,0.4c9.9,0,15-0.1,23.2-0.4v1.2c-8.2,11.8-14.4,19.7-23.3,32.8
	c-7.5,11.2-13.5,20.4-18.6,29.1c30.4,0,39.2-3.9,43.3-21.7h0.9l-2,12.8c-0.9,5.2-1.4,8.9-4.3,11.1c-9.9-0.1-16-0.3-25.6-0.3
	c-11.1,0-13,0-24.2,0.3V104.1z"/>
<path class="st0" d="M701.7,103.5c-1.6-1.9-2.3-4.8-2.3-8.3c-4.4,3.5-9,6.8-13.8,9.8c-2.8,0.9-5.7,1.3-8.6,1.3
	c-11.7,0-17.7-7.2-17.7-24.6v-19c0-10.5-0.9-13.2-2.3-15.5l-8.1-1.5l-0.1-0.6c8.1-2.4,14-4.3,20.2-6.3l0.4,0.4
	c-0.5,3.6-0.7,7.2-0.6,10.8v31c0,14,5.5,19.7,18.9,19.3c4-1.7,7.9-3.7,11.7-6V62.6c0-10.5-0.9-13.2-2.3-15.5l-8.1-1.4l-0.1-0.6
	c8.1-2.4,14-4.3,20.2-6.3l0.4,0.4c-0.5,3.6-0.6,7.2-0.6,10.8v38.6c0,7.1,1.7,11.2,7.6,11.2h4.5l0.2,0.6l-13.4,6.2
	C705.3,106.3,703.2,105.2,701.7,103.5z"/>
<path class="st0" d="M769.7,89.3c0,13.2,2.2,14.4,10.8,15.4v0.7c-6.6-0.3-9.2-0.4-15.7-0.4c-6.8,0-8.8,0.1-15.4,0.4v-0.7
	c8.2-0.7,10.8-2.2,10.8-15.3V24.5c0-10.5-1.2-13.2-2.6-15.5l-8.1-1.4l-0.2-0.6c8.1-2.4,14.4-4.5,20.6-6.9l0.4,0.4
	c-0.6,5-0.7,14.7-0.7,23L769.7,89.3z"/>
<path class="st0" d="M813.3,73.6c0-21.2,11.2-35.3,26.8-35.3c14.7,0,20.3,12.5,20.2,26.2l-1.2,1.2H823c-0.6,22.3,8.8,34.7,22,34.7
	c5.9,0,10.2-0.7,15-2.9l0.3,0.7c-6.2,3.5-11.8,6.5-17.7,8.5C825.1,107.9,813.3,97.6,813.3,73.6z M837.8,39.5
	c-10.1,0-14.5,11.7-14.8,25l27.5-0.9C850.3,50.5,845.7,39.5,837.8,39.5z"/>
<path class="st0" d="M88.3,244.6c6.5-0.3,7.5-1.7,7.5-10.3v-30.4c0-7-1.4-8.4-7.5-8.6v-0.4h16c10.5,0,18.4,2.9,18.4,12.2
	c0,5.6-4.2,9.9-11.3,11.2v0.4c9.9,1.3,14.7,6,14.6,13c-0.1,6.1-3.8,9.8-8.4,11.7c-2.8,1.1-5.7,1.7-8.7,1.7H88.3V244.6z M105.8,218.5
	c7.4,0,11-5.2,11-10.9c0-7.1-3.3-12.4-15.6-12c-0.1,3.1-0.1,5-0.1,8.2v14.7L105.8,218.5z M119.3,231.6c0-8.4-6.4-12.3-13.7-12.3
	h-4.5v16.4c0,6.2,0.8,8.6,7.2,8.6C115.6,244.2,119.4,239,119.3,231.6L119.3,231.6z"/>
<path class="st0" d="M155.7,236.9c0,6.6,1.1,7.2,5.4,7.7v0.4c-3.3-0.1-4.6-0.2-7.9-0.2s-4.4,0.1-7.7,0.2v-0.4
	c4.1-0.4,5.4-1.1,5.4-7.6v-32.5c0-5.2-0.6-6.6-1.3-7.8l-4-0.7l-0.1-0.3c4-1.2,7.2-2.2,10.3-3.5l0.2,0.2c-0.3,2.5-0.4,7.3-0.4,11.5
	L155.7,236.9z"/>
<path class="st0" d="M204,244c-0.8-1.2-1.3-2.7-1.1-4.1c-2.2,1.8-4.5,3.4-6.9,4.9c-1.4,0.4-2.9,0.7-4.3,0.6c-5.8,0-8.9-3.6-8.9-12.3
	v-9.5c0-5.2-0.4-6.6-1.1-7.8l-4-0.7l-0.1-0.3c4-1.2,7-2.2,10.1-3.2l0.2,0.2c-0.2,1.8-0.3,3.6-0.3,5.4v15.5c0,7,2.7,9.9,9.4,9.6
	c2-0.9,4-1.9,5.8-3v-15.8c0-5.2-0.4-6.6-1.2-7.8l-4-0.7l-0.1-0.3c4-1.2,7-2.2,10.1-3.2l0.2,0.2c-0.2,1.8-0.3,3.6-0.3,5.4v19.3
	c0,3.5,0.9,5.6,3.8,5.6h2.2l0.1,0.3l-6.7,3.1C205.8,245.4,204.7,244.9,204,244z"/>
<path class="st0" d="M230.8,229.1c0-10.6,5.6-17.6,13.4-17.6c7.3,0,10.1,6.3,10.1,13.1l-0.6,0.6h-18.1c-0.3,11.2,4.4,17.4,11,17.4
	c2.6,0.1,5.1-0.4,7.5-1.4l0.1,0.4c-2.8,1.7-5.8,3.1-8.9,4.2C236.7,246.2,230.8,241.1,230.8,229.1z M243,212c-5,0-7.3,5.8-7.4,12.5
	l13.8-0.4C249.3,217.5,247,212,243,212z"/>
<path class="st0" d="M280.3,204v13.2c2.3-1.9,4.9-3.6,7.5-5.1c1-0.2,2.1-0.4,3.2-0.4c6.2,0,11.8,4.9,11.8,15.6
	c0,11.2-5.9,18.4-16,18.4c-4,0-8-0.8-11.7-2.4c0.3-1,0.4-2.3,0.4-7v-32c0-5.2-0.6-6.6-1.3-7.8l-4-0.7l-0.1-0.3
	c4-1.1,7.2-2.2,10.3-3.2l0.2,0.2C280.4,195,280.3,199.8,280.3,204z M286.5,214.7c-2.2,0.8-4.2,1.9-6.2,3.1V237
	c0,6.6,3.1,8.2,7.3,8.2c7.3,0,9.9-8.6,9.9-16.6S294.2,214.4,286.5,214.7z"/>
<path class="st0" d="M321.9,229.1c0-10.6,5.6-17.6,13.4-17.6c7.3,0,10.1,6.3,10.1,13.1l-0.6,0.6h-18.1c-0.3,11.2,4.4,17.4,11,17.4
	c2.6,0.1,5.1-0.4,7.5-1.4l0.1,0.4c-2.8,1.7-5.8,3.1-8.9,4.2C327.8,246.2,321.9,241.1,321.9,229.1z M334.1,212c-5,0-7.3,5.8-7.4,12.5
	l13.8-0.4C340.4,217.5,338.1,212,334.1,212L334.1,212z"/>
<path class="st0" d="M372.8,219.9c1.1-1.8,2.4-3.5,3.9-5.1c2-2.2,3.2-2.8,4.6-3.2c3.7-0.2,4.8,2.7,4.8,5c0,0.6-0.1,1.2-0.4,1.7
	l-0.4,0.3c-1.9-1.4-4.6-2.8-6.6-2.8c-1.9,0.4-4,2.5-5.8,4.6v16.5c0,6.6,1.8,7.3,6.1,7.7v0.4c-3.3-0.1-5.4-0.2-8.6-0.2
	c-3.4,0-4.3,0.1-7.6,0.2v-0.4c4.1-0.4,5.4-1.1,5.4-7.6v-13.1c0-5.2-0.6-6.6-1.3-7.8l-4-0.7l-0.1-0.3c4-1.2,7.1-2.2,10.2-3.5l0.2,0.2
	C372.9,214.5,372.7,217.2,372.8,219.9z"/>
<path class="st0" d="M411.8,219.9c1.1-1.8,2.4-3.5,3.9-5.1c2-2.2,3.2-2.8,4.6-3.2c3.7-0.2,4.8,2.7,4.8,5c0,0.6-0.1,1.2-0.4,1.7
	l-0.4,0.3c-1.9-1.4-4.6-2.8-6.6-2.8c-1.9,0.4-4,2.5-5.8,4.6v16.5c0,6.6,1.8,7.3,6.1,7.7v0.4c-3.3-0.1-5.4-0.2-8.6-0.2
	s-4.3,0.1-7.6,0.2v-0.4c4.1-0.4,5.4-1.1,5.4-7.6v-13.1c0-5.2-0.6-6.6-1.3-7.8l-4-0.7l-0.1-0.3c4-1.2,7.1-2.2,10.2-3.5l0.2,0.2
	C411.9,214.5,411.7,217.2,411.8,219.9z"/>
<path class="st0" d="M439.6,260.7l0.2-0.2c1.2,0.6,2.5,0.8,3.8,0.8c4.7,0,8.7-5.5,12.2-14.8c-3-7.6-6.9-17.4-10.6-25.6
	c-3-6.5-4.3-7.9-6.9-8.2v-0.4c3,0.1,4.8,0.1,8,0.1s4.2,0,7.4-0.1v0.4c-5.2,0.3-5.6,2-3.6,7.2c2.4,6,5.7,13.9,8.3,19.6
	c3-7.9,6.3-16.9,7.4-20.7c1.3-4.2-0.6-5.8-4.5-6.1v-0.4c2.2,0.1,3.5,0.1,6.3,0.1c2.5,0,4.2-0.1,6-0.1v0.4c-3,0.1-4.6,2.2-6.9,7.7
	c-3.8,8.9-8,20.1-13,34c-0.9,2.3-3.8,11.7-9.8,11.7C441.3,266.1,439.5,264,439.6,260.7z"/>
<path class="st0" d="M522.6,244.2c-2.5-0.9-3.6-1.9-4-4.2c-0.3-2.1-0.2-4.3,0.2-11.2h0.4c0.8,11.1,6.7,16.4,13.2,16.4
	s11.2-4.2,11.2-11.7c0-5.9-3.5-9.1-11.2-11.5c-6.8-2.1-13.2-5.3-13.2-14.4c0-8.1,6.2-13.6,15.5-13.6c2.6,0,5.1,0.3,7.6,1.1
	c2.3,0.7,3.2,1.9,3.5,4.1c0.2,1.4,0.2,2.9,0.1,9.7h-0.4c-0.9-7.1-4.2-14.2-11.5-14.2c-7,0-10.2,5.4-10.2,11c0,6.4,4.6,9.2,11.1,11.3
	c8.6,2.8,13.1,6.3,13.1,14c0,9.2-6.5,14.8-16.4,14.8C528.5,245.7,525.5,245.2,522.6,244.2z"/>
<path class="st0" d="M572.2,220.1c-2.2-5.6-3.2-7.1-6-7.4v-0.4c1.7,0.1,3.9,0.1,6.6,0.1c3,0,5.8-0.1,7.5-0.1v0.4
	c-3.8,0.1-4.8,1.4-2.8,7.5c1.7,5.3,4.6,13,6.5,17.9c1.7-3.7,4.2-9.6,6.4-15.3c-2.4-7-3.6-10-6.5-10.1v-0.4c1.8,0.1,3.6,0.1,6.4,0.1
	s5-0.1,6.8-0.1v0.4c-3.2,0.1-4.6,1.4-2.7,7.1c1.7,5.2,4.4,12.4,6.7,18.1c1.8-4.5,4.6-12.2,6.3-17.4c1.9-5.8,1.1-7.6-3.5-7.7v-0.4
	c1.7,0.1,3.5,0.1,6.2,0.1c2.1,0,4-0.1,5.5-0.1v0.4c-2.7,0.1-4.2,1.1-7,7.9c-3.1,7.6-6.3,15.8-9.4,24.8l-0.3,0.1
	c-2.8-7.5-5.4-14.7-8.1-21.5c-2.5,5.6-6.6,15.1-8.9,21.4l-0.3,0.1C578.8,237.3,575.6,228.3,572.2,220.1z"/>
<path class="st0" d="M631.1,229.1c0-10.6,5.6-17.6,13.4-17.6c7.3,0,10.2,6.3,10.1,13.1l-0.6,0.6h-18.1c-0.3,11.2,4.4,17.4,11,17.4
	c2.6,0.1,5.1-0.4,7.5-1.4l0.1,0.4c-2.8,1.7-5.8,3.1-8.8,4.2C637,246.2,631.1,241.1,631.1,229.1z M643.3,212c-5,0-7.3,5.8-7.4,12.5
	l13.8-0.4C649.6,217.5,647.3,212,643.3,212z"/>
<path class="st0" d="M672.5,229.1c0-10.6,5.6-17.6,13.4-17.6c7.3,0,10.2,6.3,10.1,13.1l-0.6,0.6h-18.1c-0.3,11.2,4.4,17.4,11,17.4
	c2.6,0.1,5.1-0.4,7.5-1.4l0.1,0.4c-2.8,1.7-5.8,3.1-8.8,4.2C678.4,246.2,672.5,241.1,672.5,229.1z M684.8,212c-5,0-7.3,5.8-7.4,12.5
	l13.8-0.4C691,217.5,688.7,212,684.8,212z"/>
<path class="st0" d="M718,232.2c0-6,0.1-17.6,0.1-17.6h-4.5l-0.1-0.2c4-1.4,7.6-5.7,9.5-10.4l0.5,0.1c-0.5,2.9-0.7,5.7-0.7,8.6
	l10.2-0.4l-0.6,2.3l-9.7-0.1v17.7c0,8.1,2.8,10.3,7,10.3c1.8,0,3.5-0.4,5.2-1l0.2,0.4c-2.2,1.3-4.5,2.5-6.8,3.6
	C720.9,245.5,718,242.9,718,232.2z"/>
<path class="st0" d="M762.1,245.7c-2.4,0-4.8-0.4-7.1-1.1c-2.5-0.7-3-1.8-3.1-3.2c-0.1-0.8-0.1-1.7,0.2-7.3h0.4
	c1.3,5.8,5.3,11.1,10.4,11.1s7-3.7,7-7.7c0-3.8-2.9-6-7.4-6.8c-6.1-1.1-10.1-3.7-10.1-9.6c0-5.5,3.8-9.6,11-9.6c2,0,4,0.2,6,0.7
	c1.7,0.2,3,1.7,3,3.4c0.1,0.6,0.1,1.9,0.1,5.7h-0.4c-1.5-4.5-5.1-9.3-9.2-9.3s-6.2,3.6-6.2,6.9c0,4.5,2.7,6.1,7.4,7.1
	c6.8,1.4,9.9,4.1,9.9,9.6C774,241.8,769,245.7,762.1,245.7z"/>
</svg>
