<svg id="レイヤー_1のコピー" data-name="レイヤー 1のコピー" xmlns="http://www.w3.org/2000/svg" viewBox="0 0 860.25 266.05"><defs><style>.cls-1{fill:#002a56;}</style></defs><path class="cls-1" d="M89,24.72c-12.53,30.39-26.78,69-32.69,85l-.86.29c-7.2-19.3-18.86-49.82-32-81.65C17.28,13.64,16.7,10,4.18,9V8.31c6.62.29,12.38.43,20.16.43,9.21,0,12.24,0,21.45-.43V9c-12.09.86-16.41,2.59-12.24,14.25,8.07,22.9,20.74,54.58,27.07,69.27C66.24,78.43,76,53.38,84.81,27.89c4.61-13.1,1.88-18-12-18.86V8.31c5.76.29,10.37.43,16.42.43,5.61,0,8.64-.14,15.55-.43V9C97.77,9.89,93.89,13.2,89,24.72Z" transform="translate(-4.18 -3.12)"/><path class="cls-1" d="M130.61,107.81c8.2-.72,10.8-2.16,10.8-15.26V66.34c0-10.51-1.16-13.25-2.6-15.55l-8.06-1.44-.14-.58c6.19-1.73,15.26-4.9,20.44-6.91l.44.43a124,124,0,0,0-.58,14.26V92.4c0,13.25,2.16,14.4,10.8,15.41v.72c-6.62-.29-9.36-.43-15.84-.43-6.77,0-8.64.14-15.26.43ZM137.37,22a7.06,7.06,0,1,1,14.12,0,7.06,7.06,0,0,1-14.12,0Z" transform="translate(-4.18 -3.12)"/><path class="cls-1" d="M207.93,92.4c0,13.25,2.16,14.4,10.8,15.41v.72c-6.62-.29-9.21-.43-15.69-.43-6.77,0-8.79.14-15.41.43v-.72c8.21-.72,10.8-2.16,10.8-15.26V27.6c0-10.51-1.15-13.25-2.59-15.55l-8.07-1.44-.14-.57c8.06-2.45,14.4-4.47,20.59-6.92l.43.44c-.57,5-.72,14.68-.72,23Z" transform="translate(-4.18 -3.12)"/><path class="cls-1" d="M273.16,92.4c0,13.25,2.16,14.4,10.8,15.41v.72c-6.62-.29-9.21-.43-15.69-.43-6.77,0-8.79.14-15.41.43v-.72c8.21-.72,10.8-2.16,10.8-15.26V27.6c0-10.51-1.15-13.25-2.59-15.55L253,10.61l-.14-.57c8.06-2.45,14.4-4.47,20.59-6.92l.43.44c-.57,5-.72,14.68-.72,23Z" transform="translate(-4.18 -3.12)"/><path class="cls-1" d="M355.39,109.68c-2.88-.57-4.9-1.44-6.48-3.74-1.16-1.73-1.88-5.62-1.88-8.5-5.32,10.37-12.81,12.39-18.43,12.24-7.63-.14-13.1-5-13.39-13.1A18.36,18.36,0,0,1,322.7,80c8.06-2.88,16.85-5.33,24.33-7.35V66.34c0-9.07-1.72-15.27-5.76-18a15,15,0,0,0-8.92-2.45,17.7,17.7,0,0,0-3.89.43l-.72.72a62.91,62.91,0,0,0,.14,10.51l-1.58,1.3a7.45,7.45,0,0,1-1.73.29c-3.46,0-5.9-1.59-5.9-5.19s5.76-7.05,10.22-9.07a35.59,35.59,0,0,1,11.66-3.17c9.51,0,15.84,5.76,15.84,22.61,0,8.07-.28,17.57-.28,23.76,0,11.23,1.44,14.83,7.2,14.83h5.76l.14.58Zm-8.36-36A186.68,186.68,0,0,0,329.18,81c-3,2.44-5,7-4.47,13.53.44,5.47,3.89,9.51,10.8,9.22,5-.15,11.24-4.32,11.38-9.94C347,89.38,347,83.33,347,73.68Z" transform="translate(-4.18 -3.12)"/><path class="cls-1" d="M445.82,107.81c10.22-1.3,13.53-6.19,17.71-15.84C470.15,76.85,499,7.16,499,7.16l.87-.29c9.64,27.07,22.32,63.21,29.08,81.21,5,13.54,7.35,18.43,17.72,19.73v.72c-6.2-.29-9.94-.43-18-.43-9.51,0-15.56.14-21.6.43v-.72c11.52-.86,15.4-3.6,11.8-14.69-2.73-8.35-5.9-18.14-8.35-24.91H475.34s-4.76,12.67-7.35,20.3c-5,14.69-.57,18.87,12.24,19.3v.72c-4.46-.14-10.36-.43-17.85-.43-5.91,0-12.39.14-16.56.43ZM509.9,66.63C505.43,54,499,35,494.34,22.27L476.06,66.63Z" transform="translate(-4.18 -3.12)"/><path class="cls-1" d="M572.11,107.23c8.35-12,13.82-20,22.17-32.25C601.34,64.47,608.82,53.81,614,45c-28.22,0-34.42,4.6-38.3,18h-.87l1.3-10.37c.72-6.19,2.59-8.21,3.74-9.36,9.36.29,14.11.43,22.9.43,9.93,0,15-.14,23.18-.43v1.15c-8.21,11.81-14.4,19.73-23.33,32.83-7.49,11.23-13.53,20.45-18.57,29.09,30.38,0,39.16-3.89,43.34-21.74h.86l-2,12.81c-.87,5.19-1.44,8.93-4.32,11.09-9.94-.14-16-.29-25.63-.29-11.09,0-13,0-24.19.29Z" transform="translate(-4.18 -3.12)"/><path class="cls-1" d="M705.88,106.66c-1.58-1.87-2.3-4.75-2.3-8.35a136.41,136.41,0,0,1-13.83,9.79,28,28,0,0,1-8.64,1.29c-11.66,0-17.71-7.2-17.71-24.62v-19c0-10.51-.86-13.25-2.3-15.55L653,48.77l-.14-.58c8.06-2.44,14-4.32,20.16-6.33l.43.43a73,73,0,0,0-.58,10.8v31c0,14,5.48,19.73,18.87,19.3a100.14,100.14,0,0,0,11.66-6V65.76c0-10.51-.86-13.25-2.3-15.55l-8.07-1.44-.14-.58c8.06-2.44,14-4.32,20.16-6.33l.43.43a74.31,74.31,0,0,0-.57,10.8V91.68c0,7.06,1.72,11.23,7.63,11.23H725l.15.58-13.4,6.19A9.35,9.35,0,0,1,705.88,106.66Z" transform="translate(-4.18 -3.12)"/><path class="cls-1" d="M773.85,92.4c0,13.25,2.16,14.4,10.8,15.41v.72c-6.63-.29-9.22-.43-15.7-.43-6.77,0-8.78.14-15.41.43v-.72c8.21-.72,10.8-2.16,10.8-15.26V27.6c0-10.51-1.15-13.25-2.59-15.55l-8.06-1.44-.15-.57c8.07-2.45,14.4-4.47,20.6-6.92l.43.44c-.58,5-.72,14.68-.72,23Z" transform="translate(-4.18 -3.12)"/><path class="cls-1" d="M817.48,76.71c0-21.17,11.23-35.28,26.78-35.28,14.69,0,20.31,12.52,20.16,26.2l-1.15,1.16H827.13c-.58,22.32,8.78,34.7,22,34.7,5.9,0,10.22-.72,15-2.88l.29.72c-6.19,3.46-11.81,6.48-17.71,8.5C829.29,111,817.48,100.75,817.48,76.71ZM842,42.58c-10.08,0-14.55,11.66-14.83,25l27.5-.86C854.49,53.67,849.88,42.58,842,42.58Z" transform="translate(-4.18 -3.12)"/><path class="cls-1" d="M92.45,247.72c6.48-.29,7.49-1.73,7.49-10.3V207c0-7-1.44-8.35-7.49-8.64V198h16c10.51,0,18.36,2.88,18.36,12.17,0,5.55-4.24,9.87-11.3,11.16v.44c9.86,1.29,14.69,6,14.62,13-.08,6.12-3.82,9.79-8.43,11.66a23.2,23.2,0,0,1-8.71,1.66H92.45ZM110,221.58c7.41,0,11-5.25,11-10.94,0-7.13-3.31-12.39-15.55-12-.07,3.1-.07,5-.07,8.21v14.69Zm13.53,13.11c0-8.36-6.4-12.32-13.68-12.32h-4.46v16.35c0,6.19.79,8.64,7.2,8.64C119.74,247.36,123.55,242.1,123.55,234.69Z" transform="translate(-4.18 -3.12)"/><path class="cls-1" d="M159.91,240c0,6.62,1.08,7.2,5.4,7.7v.36c-3.31-.14-4.61-.22-7.85-.22s-4.39.08-7.7.22v-.36c4.1-.36,5.4-1.08,5.4-7.63V207.61c0-5.25-.58-6.62-1.3-7.77l-4-.72-.07-.29c4-1.23,7.2-2.23,10.29-3.46l.22.22c-.29,2.52-.36,7.34-.36,11.52Z" transform="translate(-4.18 -3.12)"/><path class="cls-1" d="M208.15,247.14A6.4,6.4,0,0,1,207,243a66.54,66.54,0,0,1-6.91,4.89,14,14,0,0,1-4.32.65c-5.84,0-8.86-3.6-8.86-12.31v-9.51c0-5.25-.43-6.62-1.15-7.77l-4-.72-.08-.29c4-1.22,7-2.16,10.08-3.17l.22.22a36.49,36.49,0,0,0-.29,5.4v15.48c0,7,2.74,9.86,9.43,9.65a50.24,50.24,0,0,0,5.84-3V226.69c0-5.25-.43-6.62-1.16-7.77l-4-.72-.07-.29c4-1.22,7-2.16,10.08-3.17l.22.22a36.49,36.49,0,0,0-.29,5.4v19.3c0,3.52.86,5.61,3.82,5.61h2.23l.07.29-6.7,3.1A4.67,4.67,0,0,1,208.15,247.14Z" transform="translate(-4.18 -3.12)"/><path class="cls-1" d="M234.93,232.17c0-10.59,5.62-17.64,13.4-17.64,7.34,0,10.15,6.26,10.08,13.1l-.58.58H239.76c-.29,11.16,4.39,17.35,11,17.35a16.74,16.74,0,0,0,7.49-1.44l.15.36a55.13,55.13,0,0,1-8.86,4.25C240.84,249.3,234.93,244.19,234.93,232.17Zm12.24-17.07c-5,0-7.27,5.83-7.41,12.53l13.75-.43C253.44,220.65,251.13,215.1,247.17,215.1Z" transform="translate(-4.18 -3.12)"/><path class="cls-1" d="M284.47,207.11v13.25a54.26,54.26,0,0,1,7.49-5.11,15,15,0,0,1,3.17-.36c6.19,0,11.8,4.89,11.8,15.55,0,11.16-5.9,18.36-16,18.36a27.53,27.53,0,0,1-11.67-2.45c.29-1,.44-2.3.44-7V207.32c0-5.25-.58-6.62-1.3-7.77l-4-.72-.07-.29c4-1.15,7.2-2.16,10.29-3.17l.22.22C284.54,198.11,284.47,202.93,284.47,207.11Zm6.19,10.73a33.69,33.69,0,0,0-6.19,3.09v19.16c0,6.55,3.09,8.21,7.27,8.21,7.27,0,9.87-8.64,9.87-16.57S298.37,217.48,290.66,217.84Z" transform="translate(-4.18 -3.12)"/><path class="cls-1" d="M326.08,232.17c0-10.59,5.62-17.64,13.4-17.64,7.34,0,10.15,6.26,10.08,13.1l-.58.58H330.91c-.29,11.16,4.39,17.35,11,17.35a16.74,16.74,0,0,0,7.49-1.44l.15.36a55.13,55.13,0,0,1-8.86,4.25C332,249.3,326.08,244.19,326.08,232.17Zm12.24-17.07c-5,0-7.27,5.83-7.41,12.53l13.75-.43C344.59,220.65,342.28,215.1,338.32,215.1Z" transform="translate(-4.18 -3.12)"/><path class="cls-1" d="M377,223a36.29,36.29,0,0,1,3.89-5.11c2-2.16,3.24-2.81,4.6-3.17,3.68-.21,4.76,2.74,4.76,5a4.77,4.77,0,0,1-.36,1.73l-.44.29c-1.87-1.37-4.6-2.81-6.62-2.81-1.94.36-4,2.52-5.76,4.61V240c0,6.62,1.8,7.34,6.12,7.7v.36c-3.31-.14-5.4-.22-8.64-.22-3.39,0-4.32.08-7.63.22v-.36c4.1-.36,5.4-1.08,5.4-7.63V227c0-5.25-.58-6.62-1.3-7.77l-4-.72-.07-.29c4-1.23,7.13-2.23,10.22-3.46l.22.22A52.81,52.81,0,0,0,377,223Z" transform="translate(-4.18 -3.12)"/><path class="cls-1" d="M416,223a37.07,37.07,0,0,1,3.89-5.11c2-2.16,3.24-2.81,4.61-3.17,3.67-.21,4.75,2.74,4.75,5a4.57,4.57,0,0,1-.36,1.73l-.43.29c-1.87-1.37-4.61-2.81-6.63-2.81-1.94.36-4,2.52-5.76,4.61V240c0,6.62,1.8,7.34,6.12,7.7v.36c-3.31-.14-5.4-.22-8.64-.22s-4.32.08-7.63.22v-.36c4.1-.36,5.4-1.08,5.4-7.63V227c0-5.25-.58-6.62-1.3-7.77l-4-.72-.07-.29c4-1.23,7.13-2.23,10.22-3.46l.22.22A52.81,52.81,0,0,0,416,223Z" transform="translate(-4.18 -3.12)"/><path class="cls-1" d="M443.73,263.85l.22-.22a8.46,8.46,0,0,0,3.81.8c4.68,0,8.71-5.48,12.24-14.84-2.95-7.63-6.91-17.42-10.65-25.56-3-6.48-4.32-7.85-6.92-8.21v-.36c3,.15,4.83.15,8,.15s4.17,0,7.41-.15v.36c-5.18.29-5.61,2-3.6,7.2,2.38,6,5.69,13.9,8.28,19.59,3-7.85,6.34-16.92,7.42-20.74,1.3-4.25-.58-5.76-4.46-6.05v-.36c2.23.07,3.52.15,6.33.15,2.45,0,4.18-.08,6.05-.15v.36c-2.95.15-4.61,2.16-6.91,7.71-3.75,8.92-8,20.09-13,34-.87,2.31-3.82,11.67-9.8,11.67C445.46,269.18,443.66,267.09,443.73,263.85Z" transform="translate(-4.18 -3.12)"/><path class="cls-1" d="M526.82,247.36c-2.52-.86-3.6-1.87-4-4.25-.29-2.09-.22-4.32.21-11.23h.36c.79,11.09,6.7,16.42,13.18,16.42s11.16-4.25,11.16-11.67c0-5.9-3.46-9.14-11.16-11.52-6.77-2.09-13.25-5.26-13.25-14.4,0-8.14,6.19-13.61,15.48-13.61a24.56,24.56,0,0,1,7.56,1.08c2.31.72,3.24,1.87,3.53,4.1.22,1.44.22,2.88.07,9.72h-.43c-.94-7.12-4.25-14.25-11.45-14.25-7,0-10.15,5.4-10.15,11,0,6.41,4.61,9.22,11.09,11.31,8.64,2.81,13.1,6.34,13.1,14,0,9.22-6.55,14.83-16.41,14.83A29.06,29.06,0,0,1,526.82,247.36Z" transform="translate(-4.18 -3.12)"/><path class="cls-1" d="M576.42,223.17c-2.23-5.62-3.24-7.06-6-7.35v-.36c1.65.07,3.88.15,6.62.15,3,0,5.76-.08,7.49-.15v.36c-3.82.15-4.83,1.37-2.81,7.49,1.73,5.26,4.61,13,6.55,17.86,1.66-3.67,4.18-9.65,6.41-15.27-2.37-7-3.6-10-6.48-10.08v-.36c1.8.07,3.6.15,6.41.15s5-.08,6.84-.15v.36c-3.17.07-4.61,1.37-2.74,7.06,1.73,5.25,4.4,12.45,6.7,18.07,1.8-4.46,4.61-12.24,6.34-17.42,1.94-5.84,1.08-7.56-3.53-7.71v-.36c1.65.07,3.53.15,6.19.15,2.09,0,4-.08,5.55-.15v.36c-2.74.07-4.25,1.15-7,7.85-3.1,7.56-6.26,15.84-9.36,24.77l-.29.14c-2.81-7.48-5.4-14.68-8.13-21.53-2.53,5.62-6.56,15.13-8.93,21.39l-.29.14C583,240.38,579.81,231.45,576.42,223.17Z" transform="translate(-4.18 -3.12)"/><path class="cls-1" d="M635.25,232.17c0-10.59,5.61-17.64,13.39-17.64,7.34,0,10.15,6.26,10.08,13.1l-.57.58H640.07c-.29,11.16,4.39,17.35,11,17.35a16.8,16.8,0,0,0,7.49-1.44l.14.36a55.05,55.05,0,0,1-8.85,4.25C641.15,249.3,635.25,244.19,635.25,232.17Zm12.24-17.07c-5,0-7.27,5.83-7.42,12.53l13.75-.43C653.75,220.65,651.45,215.1,647.49,215.1Z" transform="translate(-4.18 -3.12)"/><path class="cls-1" d="M676.72,232.17c0-10.59,5.62-17.64,13.39-17.64,7.35,0,10.16,6.26,10.08,13.1l-.57.58H681.54c-.28,11.16,4.4,17.35,11,17.35a16.8,16.8,0,0,0,7.49-1.44l.14.36a54.65,54.65,0,0,1-8.85,4.25C682.62,249.3,676.72,244.19,676.72,232.17ZM689,215.1c-5,0-7.27,5.83-7.42,12.53l13.76-.43C695.22,220.65,692.92,215.1,689,215.1Z" transform="translate(-4.18 -3.12)"/><path class="cls-1" d="M722.22,235.33c0-6,.07-17.64.07-17.64h-4.46l-.07-.21c4-1.37,7.63-5.69,9.5-10.44l.51.14a51.56,51.56,0,0,0-.72,8.64l10.22-.36-.57,2.31-9.73-.08v17.72c0,8.06,2.81,10.29,7,10.29a16.3,16.3,0,0,0,5.18-1l.15.36a65.32,65.32,0,0,1-6.84,3.6C725.1,248.66,722.22,246.06,722.22,235.33Z" transform="translate(-4.18 -3.12)"/><path class="cls-1" d="M766.29,248.8a24.57,24.57,0,0,1-7.13-1.08c-2.45-.72-2.95-1.8-3.1-3.24-.07-.79-.14-1.73.22-7.27h.36c1.29,5.83,5.33,11.09,10.44,11.09s7-3.68,7-7.71c0-3.82-2.88-6-7.41-6.84-6.12-1.15-10.08-3.67-10.08-9.58,0-5.54,3.81-9.64,11-9.64a22.44,22.44,0,0,1,6,.72,3.48,3.48,0,0,1,3,3.38c.08.58.08,1.87.08,5.69h-.37c-1.51-4.54-5.11-9.29-9.21-9.29s-6.19,3.6-6.19,6.91c0,4.47,2.73,6.12,7.41,7.13,6.77,1.44,9.87,4.1,9.87,9.58C778.17,244.91,773.13,248.8,766.29,248.8Z" transform="translate(-4.18 -3.12)"/></svg>